<svg width="412" height="291" fill="none" xmlns="http://www.w3.org/2000/svg"><path d="M84.501 91.027H45.976L38.65 113H15.287L54.984 6.36h20.362L115.263 113H91.898l-7.397-21.973ZM51.908 73.23h26.66L65.165 33.312 51.908 73.23Zm139.746.878c0 12.207-2.783 21.998-8.349 29.371-5.518 7.324-12.989 10.986-22.412 10.986-8.008 0-14.478-2.783-19.41-8.35v37.354h-21.167V33.752h19.629l.733 7.764c5.127-6.153 11.816-9.229 20.068-9.229 9.766 0 17.358 3.613 22.778 10.84 5.42 7.226 8.13 17.188 8.13 29.883v1.098Zm-21.167-1.538c0-7.373-1.318-13.061-3.955-17.065-2.588-4.004-6.372-6.006-11.352-6.006-6.641 0-11.206 2.54-13.697 7.617v32.447c2.588 5.224 7.203 7.836 13.843 7.836 10.108 0 15.161-8.276 15.161-24.829Zm105.689 1.538c0 12.207-2.783 21.998-8.35 29.371-5.517 7.324-12.988 10.986-22.412 10.986-8.008 0-14.477-2.783-19.409-8.35v37.354h-21.167V33.752h19.629l.732 7.764c5.127-6.153 11.817-9.229 20.069-9.229 9.765 0 17.358 3.613 22.778 10.84 5.42 7.226 8.13 17.188 8.13 29.883v1.098Zm-21.167-1.538c0-7.373-1.319-13.061-3.955-17.065-2.588-4.004-6.372-6.006-11.353-6.006-6.64 0-11.206 2.54-13.696 7.617v32.447c2.588 5.224 7.202 7.836 13.843 7.836 10.107 0 15.161-8.276 15.161-24.829ZM311.698 113h-21.24V.5h21.24V113Zm53.98 1.465c-11.621 0-21.094-3.565-28.418-10.694-7.276-7.128-10.913-16.626-10.913-28.49v-2.052c0-7.959 1.538-15.063 4.614-21.313 3.076-6.299 7.422-11.133 13.037-14.502 5.664-3.418 12.109-5.127 19.336-5.127 10.84 0 19.36 3.418 25.562 10.254 6.25 6.836 9.375 16.528 9.375 29.077v8.643h-50.464c.683 5.175 2.734 9.326 6.152 12.45 3.467 3.126 7.837 4.688 13.11 4.688 8.155 0 14.527-2.954 19.117-8.862l10.4 11.646c-3.174 4.492-7.471 8.007-12.891 10.546-5.42 2.491-11.425 3.736-18.017 3.736Zm-2.417-65.04c-4.199 0-7.617 1.417-10.254 4.249-2.588 2.832-4.248 6.885-4.981 12.158h29.444v-1.684c-.098-4.688-1.367-8.301-3.809-10.84-2.441-2.588-5.908-3.882-10.4-3.882Z" fill="#000"/><path d="m90.067 258.238 14.356-75.879h21.899L102.665 289h-22.12l-17.358-71.338L45.83 289H23.71L.053 182.359h21.9l14.428 75.733 17.578-75.733h18.603l17.505 75.879ZM180.302 289c-.977-1.904-1.685-4.272-2.124-7.104-5.127 5.712-11.792 8.569-19.995 8.569-7.764 0-14.209-2.246-19.336-6.738-5.078-4.493-7.618-10.157-7.618-16.993 0-8.398 3.101-14.843 9.302-19.336 6.25-4.492 15.259-6.762 27.027-6.811h9.741v-4.541c0-3.662-.952-6.592-2.857-8.789-1.855-2.197-4.809-3.296-8.862-3.296-3.564 0-6.372.854-8.423 2.563-2.002 1.709-3.003 4.053-3.003 7.032h-21.167c0-4.59 1.416-8.838 4.248-12.744 2.832-3.907 6.836-6.958 12.012-9.156 5.176-2.246 10.986-3.369 17.432-3.369 9.765 0 17.505 2.466 23.217 7.398 5.762 4.882 8.643 11.767 8.643 20.654v34.35c.049 7.52 1.099 13.208 3.149 17.066V289h-21.386Zm-17.505-14.722c3.125 0 6.006-.683 8.642-2.05 2.637-1.416 4.59-3.296 5.86-5.64v-13.623h-7.91c-10.596 0-16.236 3.662-16.919 10.986l-.074 1.245c0 2.637.928 4.81 2.784 6.519 1.855 1.709 4.394 2.563 7.617 2.563Zm77.344-84.008v19.482h13.549v15.527h-13.549v39.551c0 2.93.561 5.029 1.684 6.299 1.123 1.269 3.272 1.904 6.446 1.904 2.343 0 4.418-.171 6.225-.512v16.04a43.59 43.59 0 0 1-12.817 1.904c-14.844 0-22.412-7.495-22.705-22.486v-42.7h-11.573v-15.527h11.573V190.27h21.167Zm58.3 83.129c3.907 0 7.08-1.074 9.522-3.222 2.441-2.149 3.711-5.005 3.808-8.57h19.849c-.049 5.372-1.514 10.303-4.394 14.795-2.881 4.444-6.836 7.91-11.866 10.401-4.98 2.441-10.498 3.662-16.552 3.662-11.329 0-20.264-3.589-26.807-10.767-6.543-7.226-9.814-17.187-9.814-29.883v-1.391c0-12.207 3.247-21.948 9.741-29.224 6.494-7.275 15.405-10.913 26.733-10.913 9.912 0 17.847 2.832 23.804 8.496 6.006 5.615 9.057 13.111 9.155 22.486h-19.849c-.097-4.102-1.367-7.422-3.808-9.961-2.442-2.588-5.664-3.882-9.668-3.882-4.932 0-8.667 1.806-11.206 5.42-2.49 3.564-3.735 9.375-3.735 17.431v2.198c0 8.154 1.245 14.013 3.735 17.578 2.49 3.564 6.274 5.346 11.352 5.346Zm65.918-55.004c5.616-6.739 12.671-10.108 21.167-10.108 17.188 0 25.904 9.985 26.148 29.956V289h-21.167v-50.171c0-4.541-.977-7.886-2.93-10.034-1.953-2.197-5.2-3.296-9.741-3.296-6.201 0-10.693 2.393-13.477 7.178V289h-21.167V176.5h21.167v41.895Z" fill="#EA625C"/></svg>